<svg width="434" height="88" viewBox="0 0 434 88" fill="none" xmlns="http://www.w3.org/2000/svg">
<path d="M127.639 78.7062V80.1912H119.064V70.217H120.784V78.7062H127.639Z" fill="black"/>
<path d="M147.568 75.1917C147.568 75.9219 147.408 76.5963 147.096 77.2212C146.777 77.8524 146.333 78.3969 145.764 78.8547C145.188 79.3188 144.515 79.6839 143.738 79.9437C142.961 80.2036 142.101 80.3397 141.158 80.3397C140.228 80.3397 139.368 80.2036 138.577 79.9437C137.8 79.6839 137.12 79.3188 136.551 78.8547C135.975 78.3969 135.531 77.8524 135.219 77.2212C134.921 76.5963 134.775 75.9219 134.775 75.1917C134.775 74.4864 134.921 73.8181 135.219 73.187C135.531 72.562 135.975 72.0175 136.551 71.5535C137.12 71.0956 137.8 70.7305 138.577 70.4645C139.368 70.2046 140.228 70.0685 141.158 70.0685C142.101 70.0685 142.961 70.2046 143.738 70.4645C144.515 70.7305 145.188 71.0956 145.764 71.5535C146.333 72.0175 146.777 72.562 147.096 73.187C147.408 73.8181 147.568 74.4864 147.568 75.1917ZM145.82 75.1917C145.82 74.4987 145.611 73.88 145.209 73.3355C144.821 72.791 144.272 72.364 143.572 72.0485C142.864 71.7391 142.059 71.5782 141.158 71.5782C140.249 71.5782 139.444 71.7391 138.743 72.0485C138.036 72.364 137.495 72.791 137.106 73.3355C136.718 73.88 136.523 74.4987 136.523 75.1917C136.523 75.8847 136.718 76.5159 137.106 77.0727C137.495 77.6172 138.036 78.0504 138.743 78.3597C139.444 78.6753 140.249 78.83 141.158 78.83C142.059 78.83 142.864 78.6753 143.572 78.3597C144.272 78.0504 144.821 77.6172 145.209 77.0727C145.611 76.5159 145.82 75.8847 145.82 75.1917Z" fill="black"/>
<path d="M164.973 70.217H166.721V80.1912H165.001L156.759 72.4197C156.814 73.0137 156.87 73.6201 156.925 74.2265C156.995 74.839 157.036 75.4392 157.036 76.0332V80.1912H155.316V70.217H156.981L165.25 78.1865C165.174 77.7286 165.119 77.2212 165.084 76.6767C165.042 76.1322 165.015 75.5877 165.001 75.0432C164.98 74.4987 164.973 73.979 164.973 73.484V70.217Z" fill="black"/>
<path d="M181.04 70.118C181.796 70.118 182.497 70.2047 183.149 70.3655C183.815 70.5326 184.384 70.7492 184.87 71.009C185.369 71.2565 185.758 71.5288 186.035 71.8258L184.925 72.9148C184.384 72.5374 183.794 72.2342 183.149 71.999C182.497 71.7515 181.796 71.6278 181.04 71.6278C180.152 71.6278 179.348 71.7887 178.626 72.098C177.905 72.4136 177.329 72.8405 176.906 73.385C176.475 73.9172 176.267 74.5174 176.267 75.1918C176.267 75.8044 176.392 76.3303 176.656 76.7758C176.912 77.2213 177.266 77.6049 177.71 77.9143C178.154 78.2299 178.654 78.4588 179.209 78.6073C179.778 78.7558 180.374 78.83 180.985 78.83C181.741 78.83 182.435 78.7434 183.066 78.5578C183.69 78.3784 184.19 78.1309 184.565 77.8153C184.953 77.4874 185.154 77.1099 185.175 76.6768H181.013V75.167H187.007C187.02 75.2846 187.041 75.4084 187.062 75.5383C187.076 75.6559 187.09 75.7734 187.09 75.8848C187.09 76.4169 186.993 76.9119 186.812 77.3698C186.625 77.8339 186.375 78.2299 186.063 78.5578C185.564 79.1209 184.856 79.5602 183.954 79.8695C183.066 80.1851 182.039 80.3398 180.874 80.3398C180 80.3398 179.181 80.2222 178.404 79.9933C177.627 79.7644 176.94 79.4364 176.351 79.0033C175.754 78.5578 175.296 78.0133 174.963 77.3698C174.63 76.7263 174.464 76.0024 174.464 75.1918C174.464 74.4864 174.63 73.8244 174.963 73.2118C175.296 72.5869 175.754 72.0424 176.351 71.5783C176.961 71.1204 177.662 70.7615 178.46 70.514C179.25 70.2542 180.111 70.118 181.04 70.118Z" fill="black"/>
<path d="M203.291 78.7062V80.1912H194.717V70.217H196.437V78.7062H203.291Z" fill="black"/>
<path d="M220.224 80.1912L219.003 77.8152H212.925L211.704 80.1912H209.901L215.062 70.217H217.005L222.111 80.1912H220.224ZM215.09 73.6077L213.702 76.3302H218.253L216.81 73.5582C216.658 73.2612 216.512 72.9766 216.366 72.692C216.234 72.4135 216.103 72.1104 215.978 71.7762C215.825 72.1104 215.679 72.4321 215.534 72.7415C215.381 73.0385 215.235 73.3293 215.09 73.6077Z" fill="black"/>
<path d="M229.616 77.1222C230.185 77.7039 230.795 78.1555 231.447 78.4835C232.092 78.799 232.869 78.9537 233.778 78.9537C234.278 78.9537 234.756 78.898 235.221 78.7805C235.679 78.6691 236.061 78.4959 236.359 78.2607C236.65 78.0318 236.803 77.741 236.803 77.3945C236.803 76.918 236.505 76.5901 235.915 76.4045C235.318 76.2065 234.486 76.0456 233.417 75.9095C232.529 75.8105 231.759 75.6496 231.114 75.4145C230.462 75.167 229.956 74.8452 229.588 74.4492C229.234 74.0532 229.061 73.5706 229.061 72.989C229.061 72.3826 229.262 71.8629 229.671 71.4297C230.094 70.9842 230.656 70.6501 231.364 70.415C232.085 70.186 232.869 70.0685 233.723 70.0685C234.777 70.0685 235.693 70.2294 236.47 70.5387C237.261 70.8357 237.885 71.2689 238.329 71.8257L237.164 72.9395C236.775 72.494 236.283 72.1413 235.693 71.8752C235.117 71.5968 234.451 71.4545 233.695 71.4545C232.897 71.4545 232.231 71.5782 231.697 71.8257C231.156 72.0609 230.892 72.395 230.892 72.8405C230.892 73.187 231.017 73.4716 231.281 73.682C231.558 73.88 231.926 74.0409 232.391 74.1522C232.849 74.2698 233.397 74.3626 234.028 74.4245C234.618 74.5111 235.18 74.6101 235.721 74.7215C236.276 74.839 236.775 74.9937 237.219 75.1917C237.663 75.3897 238.003 75.6496 238.246 75.959C238.503 76.2745 238.634 76.6705 238.634 77.147C238.634 77.7905 238.426 78.3535 238.024 78.83C237.635 79.3126 237.067 79.6839 236.331 79.9437C235.589 80.2036 234.722 80.3397 233.723 80.3397C232.647 80.3397 231.676 80.1912 230.809 79.8942C229.935 79.5849 229.172 79.0775 228.506 78.3845L229.616 77.1222Z" fill="black"/>
<path d="M249.145 80.1912V71.702H245.204V70.217H254.917V71.702H250.865V80.1912H249.145Z" fill="black"/>
<path d="M269.203 80.1912H262.238V78.7062H264.846V71.702H262.238V70.217H269.203V71.702H266.594V78.7062H269.203V80.1912Z" fill="black"/>
<path d="M287.427 70.217H289.175V80.1912H287.455L279.213 72.4197C279.269 73.0137 279.324 73.6201 279.38 74.2265C279.449 74.839 279.491 75.4392 279.491 76.0332V80.1912H277.77V70.217H279.435L287.705 78.1865C287.628 77.7286 287.573 77.2212 287.538 76.6767C287.496 76.1322 287.469 75.5877 287.455 75.0432C287.434 74.4987 287.427 73.979 287.427 73.484V70.217Z" fill="black"/>
<path d="M303.494 70.118C304.251 70.118 304.951 70.2047 305.603 70.3655C306.269 70.5326 306.838 70.7492 307.324 71.009C307.823 71.2565 308.212 71.5288 308.489 71.8258L307.379 72.9148C306.838 72.5374 306.249 72.2342 305.603 71.999C304.951 71.7515 304.251 71.6278 303.494 71.6278C302.606 71.6278 301.802 71.7887 301.08 72.098C300.359 72.4136 299.783 72.8405 299.36 73.385C298.929 73.9172 298.721 74.5174 298.721 75.1918C298.721 75.8044 298.846 76.3303 299.11 76.7758C299.367 77.2213 299.72 77.6049 300.164 77.9143C300.608 78.2299 301.108 78.4588 301.663 78.6073C302.232 78.7558 302.828 78.83 303.439 78.83C304.195 78.83 304.889 78.7434 305.52 78.5578C306.144 78.3784 306.644 78.1309 307.019 77.8153C307.407 77.4874 307.608 77.1099 307.629 76.6768H303.467V75.167H309.461C309.474 75.2846 309.495 75.4084 309.516 75.5383C309.53 75.6559 309.544 75.7734 309.544 75.8848C309.544 76.4169 309.447 76.9119 309.266 77.3698C309.079 77.8339 308.829 78.2299 308.517 78.5578C308.018 79.1209 307.31 79.5602 306.408 79.8695C305.52 80.1851 304.493 80.3398 303.328 80.3398C302.454 80.3398 301.635 80.2222 300.858 79.9933C300.081 79.7644 299.394 79.4364 298.805 79.0033C298.208 78.5578 297.75 78.0133 297.417 77.3698C297.084 76.7263 296.918 76.0024 296.918 75.1918C296.918 74.4864 297.084 73.8244 297.417 73.2118C297.75 72.5869 298.208 72.0424 298.805 71.5783C299.415 71.1204 300.116 70.7615 300.914 70.514C301.704 70.2542 302.565 70.118 303.494 70.118Z" fill="black"/>
<path d="M334.482 80.1912H327.517V78.7062H330.125V71.702H327.517V70.217H334.482V71.702H331.873V78.7062H334.482V80.1912Z" fill="black"/>
<path d="M344.742 70.217L349.237 75.5382L353.733 70.217H355.398V80.1912H353.65V76.0085C353.65 75.3835 353.657 74.7957 353.677 74.2512C353.712 73.6944 353.768 73.1375 353.844 72.593L349.737 77.3202H348.682L344.603 72.6177C344.672 73.1499 344.721 73.6944 344.742 74.2512C344.756 74.7957 344.77 75.3835 344.77 76.0085V80.1912H343.049V70.217H344.742Z" fill="black"/>
<path d="M369.982 70.217C370.627 70.217 371.21 70.3593 371.73 70.6377C372.265 70.9038 372.688 71.2689 373.007 71.7267C373.34 72.1908 373.506 72.7105 373.506 73.286C373.506 73.88 373.326 74.4183 372.979 74.8947C372.646 75.3774 372.188 75.761 371.619 76.058C371.044 76.3426 370.412 76.4787 369.732 76.4787H365.709V80.1912H363.988V70.217H369.982ZM369.621 74.9937C369.989 74.9937 370.329 74.9195 370.648 74.771C370.96 74.6101 371.21 74.3997 371.397 74.1522C371.599 73.8924 371.703 73.6015 371.703 73.286C371.703 72.989 371.599 72.7291 371.397 72.494C371.21 72.2465 370.96 72.0609 370.648 71.9247C370.329 71.7762 369.989 71.702 369.621 71.702H365.709V74.9937H369.621Z" fill="black"/>
<path d="M390.294 80.1912L389.073 77.8152H382.996L381.775 80.1912H379.971L385.133 70.217H387.075L392.181 80.1912H390.294ZM385.16 73.6077L383.773 76.3302H388.324L386.881 73.5582C386.728 73.2612 386.583 72.9766 386.437 72.692C386.305 72.4135 386.173 72.1104 386.048 71.7762C385.896 72.1104 385.75 72.4321 385.604 72.7415C385.452 73.0385 385.306 73.3293 385.16 73.6077Z" fill="black"/>
<path d="M409.482 78.7805C409.205 79.0157 408.823 79.2508 408.344 79.4983C407.859 79.7334 407.304 79.9314 406.679 80.0923C406.069 80.2532 405.41 80.3398 404.709 80.3398C403.856 80.3398 403.051 80.216 402.295 79.9685C401.553 79.721 400.894 79.3745 400.325 78.929C399.77 78.4835 399.333 77.9514 399.02 77.3203C398.722 76.6954 398.576 75.9838 398.576 75.1918C398.576 74.4679 398.729 73.7996 399.048 73.187C399.381 72.5621 399.832 72.0238 400.408 71.5783C400.977 71.1204 401.636 70.7615 402.378 70.514C403.134 70.2542 403.932 70.118 404.765 70.118C405.445 70.118 406.104 70.2109 406.735 70.3903C407.359 70.5574 407.914 70.7739 408.4 71.0338C408.899 71.2813 409.295 71.5412 409.593 71.801L408.539 73.0385C408.018 72.6425 407.436 72.3146 406.79 72.0485C406.159 71.7887 405.438 71.6525 404.626 71.6525C404.085 71.6525 403.558 71.7392 403.044 71.9C402.545 72.0671 402.08 72.3084 401.657 72.6178C401.247 72.9148 400.921 73.286 400.685 73.7315C400.443 74.1647 400.325 74.6473 400.325 75.1918C400.325 76.0024 400.533 76.6768 400.963 77.2213C401.386 77.7534 401.948 78.1556 402.656 78.434C403.356 78.7001 404.106 78.83 404.903 78.83C405.472 78.83 405.986 78.7682 406.43 78.632C406.888 78.4835 407.297 78.3103 407.651 78.1123C408.018 77.9143 408.351 77.7163 408.65 77.5183L409.482 78.7805Z" fill="black"/>
<path d="M419.983 80.1912V71.702H416.042V70.217H425.755V71.702H421.703V80.1912H419.983Z" fill="black"/>
<path d="M134.035 54.4146C129.373 54.4146 125.273 53.8144 121.742 52.6079C118.204 51.3889 115.45 49.6502 113.473 47.3856C111.488 45.1086 110.503 42.4047 110.503 39.2676C110.503 36.0996 111.502 33.3771 113.5 31.1001C115.498 28.8231 118.259 27.0782 121.798 25.8531C125.35 24.6342 129.429 24.0216 134.035 24.0216C135.77 24.0216 137.594 24.1082 139.502 24.2691C141.424 24.4176 143.248 24.6342 144.969 24.9126C146.689 25.1787 148.091 25.4942 149.187 25.8531C149.665 26.0016 150.082 26.2739 150.436 26.6699C150.803 27.0659 150.97 27.4804 150.935 27.9074C150.824 28.6994 150.72 29.5532 150.63 30.4566C150.553 31.3476 150.449 32.2139 150.325 33.0554C150.172 33.9835 149.811 34.5775 149.242 34.8374C148.687 35.0849 148.021 34.9364 147.244 34.3919C146.315 33.8164 145.149 33.3214 143.748 32.9069C142.36 32.4985 140.931 32.1767 139.474 31.9416C138.031 31.7127 136.699 31.5951 135.478 31.5951C131.552 31.5951 128.471 32.2572 126.238 33.5751C123.997 34.8807 122.88 36.7802 122.88 39.2676C122.88 41.6807 124.087 43.537 126.515 44.8364C128.936 46.1419 132.148 46.7916 136.144 46.7916C138.156 46.7916 140.307 46.4822 142.582 45.8511C144.872 45.2076 146.814 44.3104 148.41 43.1534C149.034 42.6089 149.672 42.4851 150.325 42.7821C150.97 43.0667 151.337 43.6236 151.435 44.4651C151.546 45.4427 151.643 46.4327 151.74 47.4351C151.851 48.4437 151.969 49.4894 152.101 50.5784C152.17 51.0734 152.052 51.5189 151.74 51.9149C151.441 52.3109 151.074 52.5707 150.63 52.6821C149.221 52.9977 147.536 53.2947 145.579 53.5731C143.616 53.8392 141.618 54.0434 139.585 54.1919C137.566 54.3404 135.714 54.4146 134.035 54.4146Z" fill="black"/>
<path d="M166.516 54.1918C165.753 54.1918 164.948 54.1485 164.102 54.0681C163.249 54 162.479 53.9505 161.799 53.9196C161.355 53.8886 160.952 53.6968 160.605 53.3503C160.272 53.0038 160.12 52.5831 160.161 52.0881C160.161 49.0562 160.189 45.9006 160.245 42.6336C160.3 39.3542 160.383 36.1181 160.494 32.9316C160.619 29.7326 160.772 26.7379 160.938 23.9473C161.105 21.1444 161.306 18.7189 161.549 16.6708C161.674 15.7303 162.222 15.1735 163.186 14.9878C163.755 14.8765 164.414 14.8022 165.156 14.7651C165.892 14.7341 166.613 14.7156 167.321 14.7156C168.001 14.7156 168.792 14.7403 169.68 14.7898C170.568 14.8393 171.386 14.9074 172.149 14.9878C172.593 15.025 173.01 15.2044 173.398 15.5323C173.787 15.8479 173.939 16.2253 173.87 16.6708C173.572 18.391 173.315 20.2039 173.093 22.1158C172.871 24.034 172.718 26.2181 172.649 28.6746C172.607 29.3181 172.732 29.7326 173.01 29.9121C173.287 30.0977 173.69 29.9306 174.231 29.4171C176.284 27.4742 178.456 26.0882 180.752 25.2591C183.062 24.4361 185.754 24.0216 188.827 24.0216C192.338 24.0216 195.459 24.628 198.179 25.8283C200.912 27.0349 203.098 28.6746 204.728 30.7536C206.372 32.8202 207.316 35.1715 207.558 37.8073C207.76 39.4594 207.919 41.3899 208.03 43.5988C208.155 45.7954 208.224 48.6107 208.224 52.0386C208.224 52.5707 208.044 52.9976 207.697 53.3256C207.364 53.6597 206.934 53.8391 206.421 53.8701C205.734 53.9072 205.005 53.932 204.228 53.9691C203.465 54 202.869 54.0186 202.425 54.0186C201.884 54.0186 201.093 54 200.038 53.9691C198.998 53.932 198.075 53.9072 197.263 53.8701C196.743 53.8391 196.299 53.6473 195.931 53.3008C195.557 52.9543 195.39 52.5521 195.432 52.0881C195.598 50.9001 195.716 49.6255 195.792 48.2518C195.883 46.8844 195.945 45.5541 195.987 44.2671C196.021 42.9801 196.021 41.9282 195.987 41.0991C195.91 39.2676 195.362 37.6341 194.349 36.1986C193.33 34.7507 191.935 33.6122 190.159 32.7831C188.383 31.9416 186.302 31.5208 183.915 31.5208C181.654 31.5208 179.642 31.954 177.866 32.8078C176.09 33.6493 174.682 34.8126 173.648 36.2976C172.607 37.7702 172.094 39.4408 172.094 41.3218C172.129 42.7945 172.191 44.4651 172.288 46.3461C172.399 48.2271 172.621 50.1576 172.954 52.1376C173.024 52.6016 172.878 53.0038 172.51 53.3503C172.156 53.6968 171.74 53.8886 171.261 53.9196C170.609 53.9505 169.825 54 168.903 54.0681C167.994 54.1485 167.196 54.1918 166.516 54.1918Z" fill="black"/>
<path d="M230.188 54.4146C225.727 54.4146 222.21 53.7092 219.643 52.2861C217.09 50.8506 215.813 48.7097 215.813 45.8511C215.813 43.0172 217.326 40.8269 220.364 39.2924C223.396 37.7579 227.593 36.7926 232.963 36.3966C236.362 36.1491 238.998 35.9264 240.871 35.7284C242.758 35.5304 244.077 35.2519 244.84 34.8869C245.617 34.528 246.005 34.0206 246.005 33.3771C246.005 32.8326 245.395 32.3067 244.174 31.7931C242.967 31.2672 240.83 31.0011 237.763 31.0011C235.044 31.0011 232.255 31.3167 229.411 31.9416C226.559 32.5727 224.027 33.5689 221.807 34.9364C221.252 35.3695 220.649 35.4252 220.003 35.1096C219.351 34.7817 219.046 34.2372 219.088 33.4761C219.122 33.0801 219.199 32.4985 219.31 31.7189C219.435 30.9454 219.566 30.1596 219.698 29.3676C219.844 28.5756 219.948 28.0002 220.003 27.6351C220.073 27.2082 220.225 26.8184 220.447 26.4719C220.669 26.1254 221.002 25.9026 221.446 25.8036C223.833 25.2282 226.393 24.7889 229.133 24.4919C231.887 24.1825 234.628 24.0216 237.347 24.0216C243.688 24.0216 248.655 25.0054 252.249 26.9669C255.856 28.9345 257.917 32.1087 258.437 36.4956C258.604 37.7331 258.756 39.28 258.909 41.1239C259.075 42.9554 259.221 44.8302 259.353 46.7421C259.499 48.6417 259.603 50.3309 259.658 51.8159C259.693 52.3975 259.519 52.8677 259.131 53.2266C258.742 53.5731 258.25 53.7897 257.66 53.8701C257.084 53.9691 256.37 54.0434 255.523 54.0929C254.67 54.1547 253.838 54.1919 253.026 54.1919C252.395 54.1919 251.555 54.1733 250.501 54.1424C249.446 54.1052 248.572 54.0186 247.892 53.8701C247.282 53.7897 246.768 53.5422 246.366 53.1276C245.957 52.7192 245.839 52.2242 246.005 51.6426C246.075 51.3642 246.158 50.9249 246.255 50.3309C246.366 49.7369 246.435 49.2419 246.477 48.8459C246.602 48.2209 246.456 47.8435 246.033 47.7074C245.603 47.5589 245.207 47.7445 244.84 48.2519C244.007 49.3594 242.828 50.3804 241.315 51.3209C239.796 52.2614 238.076 53.0162 236.154 53.5731C234.225 54.13 232.241 54.4146 230.188 54.4146ZM235.627 47.2619C237.16 47.2619 238.714 47.0267 240.289 46.5441C241.877 46.0491 243.189 45.4056 244.229 44.6136C245.284 43.8216 245.811 42.943 245.811 41.9654C245.811 41.2414 245.395 40.6536 244.562 40.2081C243.744 39.7626 242.301 39.5399 240.233 39.5399C238.103 39.5399 236.112 39.7564 234.267 40.1834C232.435 40.6165 230.965 41.1919 229.855 41.9159C228.745 42.646 228.19 43.4689 228.19 44.3909C228.19 45.3685 228.752 46.0924 229.882 46.5689C231.006 47.0329 232.921 47.2619 235.627 47.2619Z" fill="black"/>
<path d="M274.067 54.1919C273.658 54.1919 272.992 54.1547 272.069 54.0929C271.14 54.0434 270.335 53.9815 269.655 53.9196C269.169 53.8577 268.767 53.6597 268.434 53.3256C268.115 52.9977 267.962 52.6017 267.962 52.1376C267.962 49.1552 267.969 46.507 267.99 44.1929C268.004 41.8849 268.032 39.7379 268.073 37.7579C268.108 35.7779 268.17 33.8597 268.268 31.9911C268.379 30.1287 268.552 28.1734 268.795 26.1254C268.92 25.1539 269.489 24.6094 270.488 24.4919C271.056 24.43 271.778 24.3681 272.652 24.3186C273.519 24.2567 274.296 24.2196 274.983 24.2196C275.628 24.2196 276.482 24.2567 277.536 24.3186C278.591 24.3681 279.354 24.43 279.839 24.4919C280.45 24.6094 280.922 24.8507 281.255 25.2096C281.601 25.5747 281.678 25.9521 281.477 26.3481C281.199 27.1401 280.963 27.8207 280.783 28.3776C280.595 28.9221 280.505 29.6646 280.505 30.6051C280.505 31.1867 280.679 31.5456 281.033 31.6941C281.4 31.8426 281.768 31.6137 282.143 31.0011C283.641 28.5447 285.639 26.7812 288.137 25.7046C290.648 24.6156 293.499 24.0711 296.684 24.0711C298.071 24.0711 299.542 24.2382 301.096 24.5661C302.65 24.8817 303.885 25.2962 304.814 25.8036C305.328 26.0511 305.73 26.3481 306.008 26.6946C306.299 27.0411 306.452 27.4804 306.452 28.0064C306.452 29.1944 306.41 30.2462 306.341 31.1496C306.285 32.0592 306.216 33.1049 306.146 34.2929C306.105 35.0849 305.688 35.5675 304.898 35.7284C304.121 35.8954 303.441 35.7531 302.872 35.3076C301.165 34.1567 299.438 33.3771 297.683 32.9811C295.92 32.5851 294.172 32.3871 292.438 32.3871C290.343 32.3871 288.365 32.8574 286.499 33.7979C284.647 34.7384 283.128 35.9882 281.948 37.5351C280.783 39.0882 280.2 40.8021 280.2 42.6831C280.2 44.4032 280.29 46.1234 280.478 47.8559C280.658 49.5884 280.824 51.0177 280.977 52.1376C281.067 52.6326 280.922 53.0472 280.533 53.3751C280.145 53.7092 279.728 53.9072 279.284 53.9691C278.632 54.0495 277.82 54.1052 276.842 54.1424C275.878 54.1733 274.955 54.1919 274.067 54.1919Z" fill="black"/>
<path d="M320.932 22.1159C318.913 22.1159 317.255 21.7323 315.964 20.9526C314.667 20.1792 314.022 19.1645 314.022 17.9084C314.022 16.64 314.667 15.619 315.964 14.8394C317.255 14.066 318.913 13.6761 320.932 13.6761C322.964 13.6761 324.622 14.066 325.899 14.8394C327.189 15.619 327.841 16.64 327.841 17.9084C327.841 19.1645 327.189 20.1792 325.899 20.9526C324.622 21.7323 322.964 22.1159 320.932 22.1159ZM321.126 54.1919C320.717 54.1919 320.002 54.1795 318.989 54.1671C317.99 54.1486 317.144 54.0681 316.464 53.9196C315.964 53.8578 315.548 53.6474 315.215 53.3009C314.896 52.9544 314.743 52.5522 314.743 52.0881C314.743 49.0872 314.75 46.439 314.771 44.1434C314.806 41.8355 314.84 39.7008 314.882 37.7331C314.917 35.7717 314.993 33.8598 315.104 31.9911C315.229 30.1287 315.382 28.1735 315.548 26.1254C315.583 25.55 315.749 25.1478 316.048 24.9126C316.36 24.6837 316.741 24.5414 317.185 24.4919C317.74 24.43 318.441 24.3681 319.294 24.3186C320.141 24.2568 320.772 24.2196 321.181 24.2196C321.494 24.2196 322.042 24.2444 322.819 24.2939C323.596 24.331 324.241 24.3929 324.761 24.4919C325.205 24.5785 325.573 24.727 325.871 24.9374C326.183 25.154 326.357 25.55 326.398 26.1254C326.6 28.1735 326.738 30.1287 326.815 31.9911C326.905 33.8598 326.981 35.7717 327.037 37.7331C327.092 39.7008 327.12 41.8416 327.12 44.1681C327.12 46.4946 327.12 49.1553 327.12 52.1376C327.12 52.6017 326.953 52.9977 326.62 53.3256C326.301 53.6598 325.927 53.8578 325.483 53.9196C324.796 54.031 323.984 54.1053 323.041 54.1424C322.111 54.1733 321.473 54.1919 321.126 54.1919Z" fill="black"/>
<path d="M359.441 54.4146C356.777 54.4146 354.314 54.0248 352.059 53.2514C349.818 52.478 348.015 51.3333 346.648 49.8111C345.274 48.2952 344.567 46.4204 344.511 44.1929C344.511 43.1039 344.525 41.8664 344.567 40.4804C344.622 39.0944 344.692 37.696 344.789 36.2729C344.9 34.8374 345.025 33.569 345.177 32.4614C345.267 32.1335 345.156 31.855 344.844 31.6199C344.546 31.3724 344.213 31.2486 343.845 31.2486C342.714 31.2486 341.584 31.2486 340.46 31.2486C339.329 31.2486 338.184 31.2734 337.019 31.3229C336.478 31.3229 336.02 31.1435 335.631 30.7784C335.257 30.4195 335.076 30.005 335.076 29.5409V26.2244C335.076 25.7665 335.257 25.3581 335.631 25.0116C336.02 24.6651 336.478 24.4919 337.019 24.4919H343.929C344.317 24.4919 344.629 24.3805 344.872 24.1454C345.129 23.9165 345.261 23.638 345.261 23.3039C345.261 22.6295 345.274 21.9921 345.316 21.3981C345.351 20.8041 345.455 20.1297 345.621 19.3686C345.732 18.3168 346.357 17.7351 347.508 17.6361C348.188 17.5248 348.882 17.4505 349.59 17.4134C350.29 17.3825 350.984 17.3639 351.671 17.3639C352.351 17.3639 353.037 17.3825 353.724 17.4134C354.425 17.4505 355.119 17.5248 355.806 17.6361C356.319 17.6733 356.784 17.8465 357.193 18.1559C357.595 18.4529 357.762 18.8613 357.693 19.3686C357.637 20.1606 357.554 20.8289 357.443 21.3734C357.346 21.9055 357.304 22.549 357.304 23.3039C357.304 23.669 357.429 23.9721 357.693 24.2196C357.97 24.4548 358.289 24.5661 358.664 24.5661C359.899 24.5661 361.3 24.56 362.854 24.5414C364.422 24.5105 365.997 24.4857 367.572 24.4671C369.139 24.4548 370.541 24.4424 371.762 24.4424C372.275 24.4424 372.719 24.6095 373.094 24.9374C373.482 25.2715 373.677 25.6799 373.677 26.1749V30.0111C373.677 30.4938 373.482 30.9145 373.094 31.2734C372.719 31.6199 372.275 31.7808 371.762 31.7436C371.151 31.6818 370.319 31.6199 369.264 31.5704C368.21 31.5085 367.072 31.459 365.851 31.4219C364.644 31.391 363.52 31.3662 362.466 31.3476C361.411 31.3353 360.585 31.3229 359.996 31.3229C359.052 31.3229 358.261 31.558 357.637 32.0159C357.027 32.48 356.638 33.074 356.472 33.7979C356.305 34.955 356.222 36.3162 356.222 37.8816C356.222 39.4533 356.236 40.765 356.277 41.8169C356.444 43.4999 357.089 44.7126 358.22 45.4551C359.344 46.1976 360.745 46.5689 362.41 46.5689C362.889 46.5689 363.562 46.5132 364.436 46.3956C365.303 46.2657 366.24 46.111 367.239 45.9254C368.251 45.746 369.181 45.548 370.014 45.3314C370.846 45.1025 371.463 44.9045 371.873 44.7374C372.518 44.3785 373.156 44.36 373.788 44.6879C374.412 45.0035 374.703 45.5232 374.648 46.2471V50.9991C374.648 51.8283 374.232 52.4037 373.399 52.7316C372.622 53.0163 371.609 53.27 370.374 53.4989C369.153 53.7155 367.856 53.8825 366.489 53.9939C365.136 54.1238 363.832 54.2228 362.577 54.2909C361.335 54.3713 360.287 54.4146 359.441 54.4146Z" fill="black"/>
<path d="M407.284 54.4147C405.619 54.4147 403.718 54.3713 401.595 54.2909C399.486 54.2228 397.307 54.1238 395.074 53.9939C392.854 53.8825 390.752 53.7402 388.774 53.5732C386.79 53.4123 385.097 53.2205 383.696 53.0039C382.642 52.8554 382.128 52.4037 382.17 51.6427C382.239 50.6712 382.343 49.4337 382.475 47.9302C382.6 46.4142 382.732 44.8859 382.864 43.3514C383.009 41.8169 383.169 40.5794 383.335 39.6389C383.446 38.816 383.904 38.3643 384.723 38.2777C385.535 38.1787 386.166 38.4942 386.61 39.2182C388.289 41.9283 390.668 43.865 393.742 45.0344C396.808 46.21 400.353 46.7917 404.37 46.7917C407.159 46.7917 409.781 46.6122 412.223 46.2472C414.665 45.8883 416.642 45.3005 418.162 44.4899C419.674 43.6855 420.437 42.6089 420.437 41.2724C420.437 39.577 419.563 38.3705 417.829 37.6589C416.087 36.935 413.236 36.5699 409.282 36.5699C407.707 36.5699 406.035 36.6318 404.259 36.7432C402.497 36.8422 400.832 37.0154 399.264 37.2629C397.689 37.5104 396.336 37.8755 395.212 38.3519C394.526 38.717 393.922 38.8098 393.409 38.6242C392.909 38.4447 392.659 38.0673 392.659 37.4857V32.3377C392.659 31.8427 392.881 31.4219 393.325 31.0754C393.769 30.7289 394.255 30.5928 394.796 30.6547C396.197 30.7722 397.828 30.8774 399.68 30.9764C401.546 31.063 403.426 31.1249 405.313 31.1744C407.214 31.2239 408.935 31.2487 410.475 31.2487C413.951 31.2487 416.455 30.9455 417.995 30.3329C419.528 29.7265 420.298 28.7922 420.298 27.5362C420.298 26.3853 419.702 25.4819 418.522 24.8384C417.336 24.1825 415.727 23.7123 413.694 23.4277C411.675 23.1307 409.42 22.9822 406.923 22.9822C401.609 22.9822 397.356 23.4215 394.158 24.2939C390.974 25.154 388.615 26.54 387.082 28.4519C386.471 29.182 385.805 29.4667 385.084 29.3182C384.362 29.1697 384.015 28.687 384.057 27.8579C384.092 26.707 384.168 25.3087 384.279 23.6752C384.404 22.0293 384.556 20.5938 384.723 19.3687C384.834 18.3663 385.479 17.7475 386.665 17.5124C388.365 17.1659 390.398 16.8565 392.77 16.5719C395.157 16.2749 397.634 16.0398 400.207 15.8542C402.774 15.6747 405.133 15.5819 407.284 15.5819C410.426 15.5819 413.444 15.749 416.33 16.0769C419.23 16.3925 421.811 16.906 424.072 17.6114C426.327 18.3044 428.124 19.2202 429.456 20.3587C430.802 21.4972 431.482 22.877 431.482 24.4919C431.482 26.6204 430.732 28.3467 429.234 29.6647C427.735 30.9888 425.432 32.0283 422.324 32.7832C421.616 32.9193 421.297 33.1792 421.353 33.5752C421.422 33.9712 421.721 34.231 422.241 34.3424C424.96 34.924 427.104 35.5799 428.679 36.3224C430.247 37.0649 431.378 37.9559 432.064 38.9954C432.765 40.0349 433.119 41.3343 433.119 42.8812C433.119 45.0468 432.397 46.8659 430.954 48.3509C429.511 49.8359 427.569 51.0239 425.127 51.9149C422.685 52.7935 419.917 53.4247 416.83 53.8207C413.735 54.2167 410.558 54.4147 407.284 54.4147Z" fill="black"/>
<mask id="mask0_59_191" style="mask-type:luminance" maskUnits="userSpaceOnUse" x="0" y="0" width="88" height="88">
<path fill-rule="evenodd" clip-rule="evenodd" d="M47.3876 87.8672C71.6148 85.9962 89.7383 64.8395 87.8672 40.6124C85.9962 16.3851 64.8395 -1.7382 40.6124 0.132766C37.2827 0.389885 34.0682 1.01132 31.005 1.95495C36.7843 3.75638 41.1694 8.92827 41.664 15.3316C42.3118 23.7205 36.0364 31.0463 27.6474 31.694C19.2586 32.342 11.9329 26.0666 11.2851 17.6776C11.2011 16.5912 11.2334 15.5227 11.3712 14.4841C3.55257 23.1303 -0.835631 34.8476 0.132762 47.3876C2.00373 71.6148 23.1605 89.738 47.3876 87.8672Z" fill="white"/>
</mask>
<g mask="url(#mask0_59_191)">
<path d="M31.005 1.95491L29.0981 -4.23533L9.12259 1.9184L29.0775 8.13873L31.005 1.95491ZM11.3712 14.4841L17.7922 15.3366L20.5325 -5.30394L6.56697 10.1397L11.3712 14.4841ZM81.4091 41.1111C83.0045 61.7716 67.5494 79.8135 46.8889 81.409L47.8864 94.3251C75.6802 92.1787 96.4717 67.9074 94.3254 40.1136L81.4091 41.1111ZM41.1111 6.59081C61.7717 4.99527 79.8136 20.4505 81.4091 41.1111L94.3254 40.1136C92.1788 12.3196 67.9074 -8.47175 40.1136 -6.32535L41.1111 6.59081ZM32.912 8.14512C35.5203 7.34167 38.2626 6.81077 41.1111 6.59081L40.1136 -6.32535C36.3029 -6.03107 32.6161 -5.3191 29.0981 -4.23533L32.912 8.14512ZM29.0775 8.13873C32.4115 9.17796 34.9223 12.1596 35.2059 15.8303L48.1222 14.8328C47.4165 5.69685 41.157 -1.66529 32.9326 -4.22893L29.0775 8.13873ZM35.2059 15.8303C35.5783 20.6525 31.971 24.8636 27.1487 25.236L28.1462 38.1521C40.1018 37.2288 49.0455 26.7886 48.1222 14.8328L35.2059 15.8303ZM27.1487 25.236C22.3266 25.6084 18.1155 22.0011 17.7431 17.1789L4.82699 18.1763C5.75027 30.132 16.1907 39.0754 28.1462 38.1521L27.1487 25.236ZM17.7431 17.1789C17.6942 16.5457 17.7134 15.93 17.7922 15.3366L4.95029 13.6317C4.75332 15.1153 4.7081 16.6367 4.82699 18.1763L17.7431 17.1789ZM6.59085 46.8888C5.76496 36.1945 9.49989 26.2109 16.1756 18.8286L6.56697 10.1397C-2.39471 20.0498 -7.43623 33.5008 -6.32528 47.8863L6.59085 46.8888ZM46.8889 81.409C26.2283 83.0045 8.18638 67.5494 6.59085 46.8888L-6.32528 47.8863C-4.17889 75.6801 20.0925 96.4717 47.8864 94.3251L46.8889 81.409Z" fill="#38B6FF"/>
</g>
<path d="M33.6757 29.0283C37.9708 28.6967 41.1838 24.9459 40.8521 20.6507C40.5204 16.3556 36.7697 13.1426 32.4745 13.4743C28.1794 13.806 24.9664 17.5568 25.2981 21.8519C25.6298 26.147 29.3806 29.36 33.6757 29.0283Z" fill="#38B6FF"/>
<path d="M71.1791 33.4737C72.5708 23.9052 87.4089 54.4702 63.7293 52.1092C40.0495 49.7482 40.8786 44.8013 40.8786 44.8013L43.173 34.8769C42.2691 42.1807 50.5689 46.7145 59.6168 47.0101C68.6644 47.306 69.7874 43.0425 71.1791 33.4737Z" fill="#38B6FF"/>
<path d="M45.9203 19.3207L42.2832 19.6975C44.1752 19.9446 37.9482 32.1209 37.9482 32.1209L34.1525 60.5295L37.4597 72.1489L45.9203 19.3207Z" fill="#38B6FF"/>
<path d="M63.9416 20.2396C72.0756 28.8876 73.2869 41.1462 64.9538 46.4049C71.1502 44.4417 75.836 39.7312 75.4235 35.609C75.1674 33.0493 69.8474 24.7068 64.3202 19.7242C63.7961 19.2517 63.4579 19.7255 63.9416 20.2396Z" fill="#B4E5FD"/>
<path d="M63.9416 20.2396C72.0756 28.8876 73.2869 41.1462 64.9538 46.4049C71.1502 44.4417 75.836 39.7312 75.4235 35.609C75.1674 33.0493 69.8474 24.7068 64.3202 19.7242C63.7961 19.2517 63.4579 19.7255 63.9416 20.2396Z" fill="#38B6FF"/>
<path d="M36.7562 76.8308L37.8102 69.9039C36.914 63.0462 35.0103 52.6398 34.1526 60.5295C33.295 68.4191 35.5747 74.7218 36.7562 76.8308Z" fill="#38B6FF"/>
</svg>
